<?xml version="1.0" standalone="no"?>
<svg xmlns:xlink="http://www.w3.org/1999/xlink" id="wave" style="transform:rotate(180deg); transition: 0.3s" viewBox="0 0 1440 250" version="1.1" xmlns="http://www.w3.org/2000/svg"><defs><linearGradient id="sw-gradient-0" x1="0" x2="0" y1="1" y2="0"><stop stop-color="rgba(60, 95, 123, 1)" offset="0%"/><stop stop-color="rgba(234, 244, 255, 1)" offset="100%"/></linearGradient></defs><path style="transform:translate(0, 0px); opacity:1" fill="url(#sw-gradient-0)" d="M0,200L60,200C120,200,240,200,360,170.8C480,142,600,83,720,75C840,67,960,108,1080,104.2C1200,100,1320,50,1440,33.3C1560,17,1680,33,1800,45.8C1920,58,2040,67,2160,83.3C2280,100,2400,125,2520,112.5C2640,100,2760,50,2880,62.5C3000,75,3120,150,3240,166.7C3360,183,3480,142,3600,108.3C3720,75,3840,50,3960,45.8C4080,42,4200,58,4320,62.5C4440,67,4560,58,4680,45.8C4800,33,4920,17,5040,8.3C5160,0,5280,0,5400,8.3C5520,17,5640,33,5760,45.8C5880,58,6000,67,6120,58.3C6240,50,6360,25,6480,37.5C6600,50,6720,100,6840,104.2C6960,108,7080,67,7200,62.5C7320,58,7440,92,7560,91.7C7680,92,7800,58,7920,45.8C8040,33,8160,42,8280,58.3C8400,75,8520,100,8580,112.5L8640,125L8640,250L8580,250C8520,250,8400,250,8280,250C8160,250,8040,250,7920,250C7800,250,7680,250,7560,250C7440,250,7320,250,7200,250C7080,250,6960,250,6840,250C6720,250,6600,250,6480,250C6360,250,6240,250,6120,250C6000,250,5880,250,5760,250C5640,250,5520,250,5400,250C5280,250,5160,250,5040,250C4920,250,4800,250,4680,250C4560,250,4440,250,4320,250C4200,250,4080,250,3960,250C3840,250,3720,250,3600,250C3480,250,3360,250,3240,250C3120,250,3000,250,2880,250C2760,250,2640,250,2520,250C2400,250,2280,250,2160,250C2040,250,1920,250,1800,250C1680,250,1560,250,1440,250C1320,250,1200,250,1080,250C960,250,840,250,720,250C600,250,480,250,360,250C240,250,120,250,60,250L0,250Z"/><defs><linearGradient id="sw-gradient-1" x1="0" x2="0" y1="1" y2="0"><stop stop-color="rgba(60, 95, 123, 1)" offset="0%"/><stop stop-color="rgba(60, 95, 123, 1)" offset="100%"/></linearGradient></defs><path style="transform:translate(0, 50px); opacity:0.9" fill="url(#sw-gradient-1)" d="M0,25L60,54.2C120,83,240,142,360,162.5C480,183,600,167,720,158.3C840,150,960,150,1080,129.2C1200,108,1320,67,1440,62.5C1560,58,1680,92,1800,112.5C1920,133,2040,142,2160,133.3C2280,125,2400,100,2520,87.5C2640,75,2760,75,2880,87.5C3000,100,3120,125,3240,116.7C3360,108,3480,67,3600,66.7C3720,67,3840,108,3960,141.7C4080,175,4200,200,4320,191.7C4440,183,4560,142,4680,133.3C4800,125,4920,150,5040,170.8C5160,192,5280,208,5400,195.8C5520,183,5640,142,5760,125C5880,108,6000,117,6120,100C6240,83,6360,42,6480,50C6600,58,6720,117,6840,125C6960,133,7080,92,7200,66.7C7320,42,7440,33,7560,62.5C7680,92,7800,158,7920,191.7C8040,225,8160,225,8280,208.3C8400,192,8520,158,8580,141.7L8640,125L8640,250L8580,250C8520,250,8400,250,8280,250C8160,250,8040,250,7920,250C7800,250,7680,250,7560,250C7440,250,7320,250,7200,250C7080,250,6960,250,6840,250C6720,250,6600,250,6480,250C6360,250,6240,250,6120,250C6000,250,5880,250,5760,250C5640,250,5520,250,5400,250C5280,250,5160,250,5040,250C4920,250,4800,250,4680,250C4560,250,4440,250,4320,250C4200,250,4080,250,3960,250C3840,250,3720,250,3600,250C3480,250,3360,250,3240,250C3120,250,3000,250,2880,250C2760,250,2640,250,2520,250C2400,250,2280,250,2160,250C2040,250,1920,250,1800,250C1680,250,1560,250,1440,250C1320,250,1200,250,1080,250C960,250,840,250,720,250C600,250,480,250,360,250C240,250,120,250,60,250L0,250Z"/></svg>