<svg xmlns="http://www.w3.org/2000/svg" width="24" height="24" fill="none" xmlns:v="https://vecta.io/nano"><path d="M21.806 10.042H21V10h-9v4h5.651c-.824 2.328-3.04 4-5.651 4a6 6 0 1 1 0-12c1.53 0 2.921.577 3.98 1.519l2.829-2.828C17.023 3.027 14.634 2 12 2 6.478 2 2 6.478 2 12s4.478 10 10 10 10-4.477 10-10a10.07 10.07 0 0 0-.195-1.959z" fill="#fbc02d"/><path d="M3.153 7.346l3.286 2.41C7.327 7.554 9.48 6 12 6c1.529 0 2.921.577 3.98 1.519l2.829-2.828C17.023 3.027 14.634 2 12 2 8.159 2 4.828 4.169 3.153 7.346z" fill="#e53935"/><path d="M12 22c2.583 0 4.93-.988 6.704-2.596l-3.095-2.619C14.606 17.546 13.358 18 12 18c-2.601 0-4.81-1.658-5.642-3.973L3.098 16.54C4.753 19.778 8.114 22 12 22z" fill="#4caf50"/><path d="M21.806 10.042L21.798 10H21h-9v4h5.651a6.02 6.02 0 0 1-2.043 2.785l3.096 2.618C18.486 19.603 22 17 22 12a10.07 10.07 0 0 0-.195-1.959z" fill="#1565c0"/></svg>